<svg xmlns="http://www.w3.org/2000/svg" xmlns:xlink="http://www.w3.org/1999/xlink" width="84" height="31.632" viewBox="0 0 84 31.632"><defs><clipPath id="a"><rect width="84" height="31.632" /></clipPath></defs><g clip-path="url(#a)"><path d="M0,1.472H13.418a11.486,11.486,0,0,1,7.5,2.288,7.187,7.187,0,0,1,2.793,5.807q0,5.236-6.115,7.083a7.707,7.707,0,0,1,4.971,2.6,7.533,7.533,0,0,1,1.848,5.06,7.145,7.145,0,0,1-2.706,5.873q-2.706,2.178-7.545,2.178H0ZM7.523,7.191v6.687h4.927a3.919,3.919,0,0,0,2.617-.836,3.07,3.07,0,0,0,.99-2.486,3.139,3.139,0,0,0-.99-2.508,3.856,3.856,0,0,0-2.617-.858Zm0,19.445H13.2a3.641,3.641,0,0,0,2.552-.924,3.282,3.282,0,0,0,1.012-2.552,3.511,3.511,0,0,0-.968-2.6,3.4,3.4,0,0,0-2.508-.968H7.523Z" transform="translate(0 -1.032)" fill="#fff"/><path d="M113.69,25.693a3.5,3.5,0,0,1-2.31-.748,2.642,2.642,0,0,1-.9-2.156,3.107,3.107,0,0,1,.836-2.266,5.461,5.461,0,0,1,2.178-1.32q1.341-.462,2.991-.88a33.871,33.871,0,0,0,3.278-1.012,14.432,14.432,0,0,0,2.97-1.474,6.468,6.468,0,0,0,2.178-2.486,8.249,8.249,0,0,0,.836-3.85,8.622,8.622,0,0,0-3.189-6.709A12.29,12.29,0,0,0,114.151,0a13.207,13.207,0,0,0-8.4,2.508,8.536,8.536,0,0,0-3.19,7.127h8.007q.307-3.7,3.783-3.7A3.6,3.6,0,0,1,116.9,6.8a2.842,2.842,0,0,1,.924,2.178,2.92,2.92,0,0,1-.836,2.156,5.825,5.825,0,0,1-2.178,1.32q-1.342.484-2.991.9a30.119,30.119,0,0,0-3.278,1.034,16.012,16.012,0,0,0-2.97,1.474,6.273,6.273,0,0,0-2.177,2.464,8.137,8.137,0,0,0-.836,3.806,8.434,8.434,0,0,0,3.211,6.907,12.639,12.639,0,0,0,8.205,2.6,13.3,13.3,0,0,0,8.073-2.266q3.079-2.266,3.211-7.149h-8.183A4.128,4.128,0,0,1,116,24.791a3.129,3.129,0,0,1-2.31.9" transform="translate(-71.909 0)" fill="#fff"/><path d="M199.52,26.2v5.719h24.373V26.2h-8.447V1.031h-7.523V26.2Z" transform="translate(-139.893 -0.723)" fill="#fff"/></g></svg>