<svg xmlns="http://www.w3.org/2000/svg" xmlns:xlink="http://www.w3.org/1999/xlink" width="181" height="69.803" viewBox="0 0 181 69.803"><defs><clipPath id="a"><rect width="181" height="69.803" fill="#fff"/></clipPath></defs><g transform="translate(3835 1741.185)"><g transform="translate(-3835 -1741.185)"><path d="M294.5,0l-6.374,7.34L290.2,23.7l4.987-17.711,1.909,3.758,3.587-1.827,8.5,1.159,2.125,3.477,2.318-5.708.714,18.753,6.239-16.136L313.043,0Z" transform="translate(-212.336 0)" fill="#ff0"/><path d="M277.958,220.1l4.829-.966,9.658.966,3.477,2.511,6.76-13.135-10.237,6.374-9.658-.869-6.181-7.63Z" transform="translate(-203.846 -152.811)" fill="#ff0"/><g clip-path="url(#a)"><path d="M0,64.206H15.719q5.514,0,8.788,2.68a8.42,8.42,0,0,1,3.272,6.8q0,6.134-7.164,8.3a9.031,9.031,0,0,1,5.824,3.041A8.823,8.823,0,0,1,28.6,90.954a8.371,8.371,0,0,1-3.169,6.88q-3.17,2.551-8.839,2.551H0Zm8.813,6.7v7.834h5.772a4.59,4.59,0,0,0,3.066-.979,3.6,3.6,0,0,0,1.16-2.912,3.677,3.677,0,0,0-1.16-2.938,4.517,4.517,0,0,0-3.066-1Zm0,22.78h6.648A4.266,4.266,0,0,0,18.451,92.6a3.844,3.844,0,0,0,1.186-2.989A4.114,4.114,0,0,0,18.5,86.573a3.979,3.979,0,0,0-2.938-1.134H8.813Z" transform="translate(0 -47.317)" fill="#fff"/><path d="M170.927,63.813l.31,3.374.452,3.326H160.461V78.3h11.544V85H160.461v8.4h13.09v6.7h-21.9V63.813Z" transform="translate(-111.758 -47.028)" fill="#fff"/><path d="M296.767,100.1l-2.01-6.081H281.77l-2.01,6.081h-9.38l12.575-36.283h10.72L306.2,100.1ZM283.986,87.314h8.556L288.264,74.43Z" transform="translate(-199.258 -47.027)" fill="#fff"/><path d="M452.7,92.345A4.1,4.1,0,0,1,450,91.469a3.094,3.094,0,0,1-1.056-2.525,3.639,3.639,0,0,1,.979-2.654,6.391,6.391,0,0,1,2.551-1.546q1.572-.541,3.5-1.031a39.734,39.734,0,0,0,3.84-1.186,16.891,16.891,0,0,0,3.479-1.726,7.574,7.574,0,0,0,2.551-2.912,9.662,9.662,0,0,0,.979-4.51,10.1,10.1,0,0,0-3.736-7.859q-3.737-3.274-9.844-3.273T443.4,65.185a10,10,0,0,0-3.737,8.349h9.38q.36-4.329,4.432-4.329a4.223,4.223,0,0,1,2.989,1,3.329,3.329,0,0,1,1.082,2.551,3.42,3.42,0,0,1-.979,2.525,6.823,6.823,0,0,1-2.551,1.546q-1.572.567-3.5,1.057a35.314,35.314,0,0,0-3.84,1.211,18.754,18.754,0,0,0-3.479,1.727,7.351,7.351,0,0,0-2.551,2.886,9.528,9.528,0,0,0-.979,4.458,9.881,9.881,0,0,0,3.762,8.092,14.806,14.806,0,0,0,9.612,3.041,15.58,15.58,0,0,0,9.457-2.654q3.607-2.655,3.762-8.375h-9.586a4.834,4.834,0,0,1-1.263,3.015,3.666,3.666,0,0,1-2.705,1.057" transform="translate(-324.011 -45.873)" fill="#fff"/><path d="M579.553,93.1v6.7H608.1V93.1h-9.9V63.619H589.4V93.1Z" transform="translate(-427.105 -46.884)" fill="#fff"/></g></g></g></svg>