<svg xmlns="http://www.w3.org/2000/svg" xmlns:xlink="http://www.w3.org/1999/xlink" width="375" height="77.049" viewBox="0 0 375 77.049"><defs><clipPath id="a"><rect width="375" height="77.049" fill="#fff"/></clipPath></defs><g clip-path="url(#a)"><path d="M0,5.465H32.568q11.424,0,18.206,5.573a17.529,17.529,0,0,1,6.78,14.145q0,12.754-14.842,17.253a18.687,18.687,0,0,1,12.066,6.322,18.385,18.385,0,0,1,4.485,12.324q0,9-6.567,14.306t-18.313,5.3H0ZM18.259,19.4V35.685H30.219a9.489,9.489,0,0,0,6.353-2.037,7.489,7.489,0,0,0,2.4-6.054,7.659,7.659,0,0,0-2.4-6.109,9.338,9.338,0,0,0-6.353-2.09Zm0,47.365H32.033a8.819,8.819,0,0,0,6.193-2.25A8.01,8.01,0,0,0,40.683,58.3a8.568,8.568,0,0,0-2.349-6.323,8.226,8.226,0,0,0-6.087-2.357H18.259Z" transform="translate(0 -4.394)" fill="#fff"/><path d="M468.524,4.372V18.3H441.4V34.484h23.918V48.415H441.4V65.883h27.121V79.814H423.144V4.372Z" transform="translate(-340.498 -3.515)" fill="#fff"/><path d="M809.111,79.814l-4.165-12.645H778.039l-4.164,12.645H754.441L780.495,4.372H802.7l25.947,75.442ZM782.63,53.238h17.725l-8.863-26.79Z" transform="translate(-607.089 -3.515)" fill="#fff"/><path d="M1253.8,62.583a8.467,8.467,0,0,1-5.606-1.822,6.445,6.445,0,0,1-2.188-5.251,7.583,7.583,0,0,1,2.029-5.519,13.231,13.231,0,0,1,5.286-3.214q3.256-1.126,7.26-2.143a82.029,82.029,0,0,0,7.955-2.465,34.931,34.931,0,0,0,7.208-3.59,15.732,15.732,0,0,0,5.286-6.055,20.149,20.149,0,0,0,2.028-9.377q0-9.538-7.741-16.342T1254.926,0q-12.653,0-20.394,6.109t-7.742,17.36h19.434q.745-9,9.182-9a8.731,8.731,0,0,1,6.193,2.089,6.935,6.935,0,0,1,2.243,5.3,7.126,7.126,0,0,1-2.029,5.251,14.132,14.132,0,0,1-5.286,3.214q-3.258,1.179-7.26,2.2a72.9,72.9,0,0,0-7.955,2.519,38.783,38.783,0,0,0-7.208,3.59,15.264,15.264,0,0,0-5.285,6,19.875,19.875,0,0,0-2.029,9.269,20.572,20.572,0,0,0,7.795,16.825q7.793,6.321,19.914,6.322t19.594-5.519q7.473-5.521,7.795-17.414h-19.861a10.075,10.075,0,0,1-2.616,6.269,7.582,7.582,0,0,1-5.606,2.2" transform="translate(-987.183)" fill="#fff"/><path d="M1617.128,65.124V79.055h59.155V65.124h-20.5V3.827h-18.259v61.3Z" transform="translate(-1301.283 -3.077)" fill="#fff"/></g></svg>