<svg xmlns="http://www.w3.org/2000/svg" width="842.812" height="1059.306" viewBox="0 0 842.812 1059.306">
  <path id="path3678" d="M488.7,1161.281a256.9,256.9,0,0,1-19.026-22.856c-.962-1.4-3.876-5.841-6.476-9.869s-6.033-8.98-7.63-11.005-2.9-4.175-2.9-4.778-1.224-2.912-2.721-5.131a104.568,104.568,0,0,1-5.371-9.274c-1.458-2.882-3.709-6.926-5-8.987a65.214,65.214,0,0,1-4.2-8.274,117.255,117.255,0,0,0-5.792-11.32c-2.168-3.737-3.941-7.3-3.941-7.913,0-1.466-5.1-12.3-6.492-13.8a15.073,15.073,0,0,1-2.127-4.287c-.574-1.719-2.99-7.2-5.369-12.175s-4.325-9.634-4.325-10.347-2.354-6.214-5.232-12.224-5.232-11.467-5.232-12.126-1.739-5-3.866-9.64-6.706-15.186-10.177-23.43-7.043-16.128-7.936-17.52a62.636,62.636,0,0,1-3.763-7.726c-2.665-6.474-12.588-22.775-15.522-25.5a27.668,27.668,0,0,0-4.007-3.078,3.929,3.929,0,0,1-1.819-3.355c0-1.371-.5-2.309-1.239-2.309-.692,0-1.506-1.344-1.845-3.045a15.713,15.713,0,0,0-1.235-3.981,58.6,58.6,0,0,1-2.611-6.761c-1.246-3.662-2.594-6.033-3.63-6.387-.907-.309-1.648-.936-1.648-1.393s-1.373-1.108-3.052-1.446-3.052-.8-3.052-1.037,1.411-3.531,3.136-7.33l3.136-6.908-3.138-5.078c-3.241-5.246-7.9-10.031-9.769-10.031-.587,0-2.3-1.676-3.812-3.724-3.1-4.207-14.249-27.173-15.188-31.29a91.33,91.33,0,0,0-4.131-10.572c-2.588-5.8-3.513-9.044-3.5-12.3.015-5.436-.44-6.2-9.714-16.37-6.413-7.031-9.132-10.935-14.167-20.347a27.106,27.106,0,0,0-2.018-3.133c-.612-.792-.989-3.036-.838-4.986.227-2.932.907-4.039,3.927-6.389,4.117-3.2,4.265-3.652,2.446-7.4-1.7-3.5-1.647-4.1.441-4.811,2.671-.911,2.111-3.034-2.143-8.116a32.316,32.316,0,0,1-4.971-7.866c-.6-1.772-1.3-3.222-1.563-3.222s-.52-.948-.57-2.108c-.073-1.7-3.565-23.315-5.22-32.31-.248-1.35-2.635-3.667-6.694-6.5-14.492-10.108-30.08-25.787-34.276-34.477-.739-1.531-2.161-4.2-3.159-5.938-2.6-4.523-5.062-15.446-5.062-22.48,0-5.346.333-6.539,2.892-10.368,2.794-4.181,4.956-9.383,4.956-11.925,0-.676-1.766-3.558-3.924-6.4-4.148-5.471-4.983-9.156-2.425-10.694,3.033-1.823,10.821,5.264,11.973,10.895A16.094,16.094,0,0,0,231,583.764c2.073,2.545,2.624,2.776,4.539,1.9a20.653,20.653,0,0,1,4.752-1.356c1.414-.2,2.823-.8,3.129-1.329s1.7-1.111,3.1-1.286,2.833-.365,3.193-.424a.959.959,0,0,0,.654-.977c0-.479-2.06-1.344-4.578-1.924-4.3-.989-4.752-1.375-7.412-6.29-3.318-6.13-3.412-6.926-1.09-9.183a6.2,6.2,0,0,0,1.744-2.373c0-.373-2.342-1.618-5.205-2.769s-5.658-2.677-6.211-3.393a3.229,3.229,0,0,0-1.754-1.3c-1.3,0-10.758-6.8-11.95-8.593-1.411-2.12-2.621-2.162-4.678-.161-1.486,1.445-1.712,1.436-3.322-.129-2.514-2.444-2.941-6.731-1.387-13.927,1.929-8.935,1.742-13.556-.765-18.876-2.083-4.42-2.1-4.591-.565-6.951,4.084-6.294,2.047-17.422-4.471-24.424l-3.573-3.838,3.159-3.475c3.68-4.049,3.309-5.558-1.5-6.088-2.575-.284-3.656-.96-4.588-2.871-1.135-2.326-1.059-2.648,1.093-4.636l2.312-2.136-4.458-6.248c-2.452-3.436-4.458-6.6-4.458-7.035a28.141,28.141,0,0,0-2.8-5.421c-8.231-13.608-14.18-27.865-16.916-40.54a44.217,44.217,0,0,0-4.307-11.073,41.072,41.072,0,0,1-3.007-5.605c0-1.017-10.531-14.753-17.908-23.357-8.235-9.605-28.98-30.249-36.7-36.519C96.007,313.8,93.64,312.2,88.453,309.922c-4.889-2.147-5.075-2.354-4.788-5.314a13.113,13.113,0,0,1,.622-3.436c.178-.2,2.2.371,4.5,1.259,6.336,2.453,9.842,2.871,9.842,1.174,0-1.441-21.805-24.2-32.631-34.055-3.319-3.022-8.079-7.391-10.578-9.71-13.637-12.653-25.795-22.382-31.785-25.434a20.985,20.985,0,0,1-4.36-2.672A14.38,14.38,0,0,0,16,229.5a9.618,9.618,0,0,1-2.834-1.96c0-1.371,2.185-5.173,2.974-5.175,1.437,0,13.27,6.084,21.007,10.808,2.878,1.757,5.891,3.206,6.7,3.221a4.338,4.338,0,0,1,2.616,1.236,26.864,26.864,0,0,0,4.64,3.176c1.918,1.082,6.291,3.594,9.716,5.583,5.876,3.411,8.13,4.748,17.835,10.577,3.8,2.282,9.759,6.132,25.643,16.565,3.837,2.52,8.35,5.672,10.028,7s4.285,3.228,5.792,4.213c11.9,7.779,30.21,25.7,37.728,36.921,1.553,2.319,2.991,4.11,3.2,3.981,1.839-1.155,4.088.592,7.835,6.084,3.909,5.73,7.939,11.264,20.242,27.8,18.777,25.235,29.349,36.209,41.619,43.2,3.174,1.809,7.754,4.755,10.179,6.546s4.794,3.258,5.266,3.258c1.323,0,5.923,3.755,5.923,4.835,0,.635-2.8.735-8.284.293-7.238-.583-8.284-.48-8.284.816,0,1.609,3.292,8.311,6.9,14.041,1.243,1.975,3.437,5.572,4.875,7.992,5.265,8.856,14.817,20.737,16.673,20.737a1.666,1.666,0,0,1,1.423,1.171c.236.759,1.933,1.122,4.824,1.031l4.46-.14,5.277,6.853c2.9,3.769,5.277,7.281,5.277,7.8,0,.6-.919.667-2.49.183a11.435,11.435,0,0,0-4.754-.3l-2.264.465,3.288,4.818a44.965,44.965,0,0,1,3.938,6.691c.358,1.031,2.944,5.878,5.746,10.773a103.3,103.3,0,0,1,7.463,16.394,59.674,59.674,0,0,0,3.207,8.624,2.028,2.028,0,0,1,.391,1.912c-.7,1.222,6.463,35.932,8.753,42.393a19.925,19.925,0,0,1,.749,3.407c.4,3.184,8.089,34.471,9.205,37.453a27.678,27.678,0,0,1,1.322,5.266c.371,3.06,6.348,23.261,7.279,24.6a14.864,14.864,0,0,1,1.21,4.1c.631,3.572,4.39,11.872,7.87,17.377a24.031,24.031,0,0,1,2.822,6.089c.831,4.034,20.454,47.445,24.452,54.094,1.6,2.664,2.912,5.334,2.912,5.935s2.284,3.509,5.076,6.462l5.076,5.369-.626,6.494c-.773,8.022-.257,11.849,2.327,17.269,3.41,7.15,5.431,9.769,8.4,10.883,1.571.589,2.779,1.476,2.684,1.971-.872,4.572-1.988,30.314-1.572,36.253.654,9.316,2.813,20.947,4.382,23.6,3.761,6.365,10.877,35.151,10.877,44,0,2.459,1.051,4.384,5.014,9.184A34.934,34.934,0,0,1,415.5,903.6a83.156,83.156,0,0,0,3.686,9.832c.73,1.271,1.108,4.385,1,8.249-.1,3.637.22,6.476.775,6.858a5.912,5.912,0,0,1,1.546,2.717c.746,2.57,5.354,6.833,7.386,6.833a6.113,6.113,0,0,1,3.341,1.83c1.659,1.66,1.783,2.542,1.34,9.5-.6,9.446.7,12.6,6.968,16.924,4.074,2.809,4.716,2.958,11.948,2.787,9.738-.231,11.72.594,13.924,5.792a44.319,44.319,0,0,0,4.879,8.148c2.378,3.058,3.069,4.724,2.869,6.925-.237,2.612-.586,2.927-3.533,3.189-4.058.361-4.277,2.2-.654,5.474,3.487,3.152,3.713,8.259.436,9.863-2.095,1.025-3.106,4.513-1.308,4.513,1.27,0,1.057,2.875-.441,5.962-1.722,3.547-1.643,6.061.391,12.536a60.282,60.282,0,0,1,1.962,7.677c.2,1.691,1.007,2.491,3.1,3.071,2.422.671,2.834,1.2,2.834,3.656,0,2.11-.476,3.005-1.793,3.375-.986.277-1.611,1.015-1.388,1.639a54.913,54.913,0,0,1,1.03,6.507c.7,6.043,1.019,6.459,10.515,13.838,3.519,2.735,6.413,5.276,6.43,5.648s-3.091.583-6.907.468c-6.027-.18-7.1.035-8.2,1.638-2.511,3.686-2.381,8.888.412,16.38a66.808,66.808,0,0,0,3.353,7.972c.932,1.217,3.331,8.447,8.557,25.8,2.251,7.471,4.294,13.794,4.541,14.052a3.4,3.4,0,0,1,.449,1.874c0,.773.745,5.08,1.656,9.572,1.35,6.658,1.451,8.432.547,9.6-1.823,2.36-3.75,1.673-8.461-3.014Zm358.472-124.939c-11.435-10.645-15.516-14.9-24.692-25.722-5.273-6.221-11.363-13.809-13.533-16.862s-4.7-6.6-5.619-7.893c-3.452-4.831-19.951-32.4-20.48-34.215a64.726,64.726,0,0,0-4.473-8.431c-2.157-3.595-3.925-7.037-3.928-7.649s-2.36-5.661-5.238-11.22-5.233-10.75-5.234-11.534-1.708-5.01-3.795-9.39a82.327,82.327,0,0,1-4.413-10.7,83.257,83.257,0,0,0-3.715-9.836c-3.83-8.784-4.959-11.7-6.382-16.466a82.55,82.55,0,0,0-3.235-8.431,94.38,94.38,0,0,1-3.428-8.9c-1.118-3.6-4.526-11.452-13.669-31.51a61.131,61.131,0,0,0-6.691-9.926c-2.709-3.329-5.438-7.382-6.065-9.007s-1.484-2.955-1.906-2.955-.766-.87-.766-1.934-1.917-5.807-4.259-10.539a83,83,0,0,1-4.819-11.209,10.474,10.474,0,0,0-2.891-4.684c-9.5-8.474-10.279-9.611-11.388-16.558-1.373-8.6-1.348-9.471.249-8.812,1.906.786,1.609-.414-.928-3.748-15.017-19.738-19.916-28.09-22.264-37.951-2.185-9.176-10.7-27.506-14.4-30.995a54.2,54.2,0,0,1-10.288-15.138c-1.057-2.717-1.062-3.532-.038-5.52,1.623-3.15,1.555-3.737-.429-3.737-2.018,0-2.27-.4-3-4.754-.5-2.994-.306-3.489,1.847-4.671a50.917,50.917,0,0,0,10.039-7.36,8.017,8.017,0,0,0,.276-11.268c-1.554-1.752-2.736-5.265-4.414-13.115-1.26-5.9-2.537-11.149-2.837-11.67a9.263,9.263,0,0,1-.758-2.862,75.827,75.827,0,0,0-2.274-8.471l-2.061-6.558-4.757-.636c-2.616-.35-6.327-.8-8.245-1-4.486-.47-8.874-2.957-9.61-5.448a3.535,3.535,0,0,1-.067-2.5c.281-.3-.309-1.164-1.309-1.917-1.722-1.3-19.1-25.84-19.1-26.977a67.886,67.886,0,0,0-3.533-7.035c-4.442-8.17-6.038-13.778-6.049-21.259-.012-6.894,1.475-11.29,4.752-14.059,1.826-1.543,2.22-2.474,1.75-4.139a32.551,32.551,0,0,0-6.293-10.933L580.692,476l1.757-1.888,1.757-1.887,7.094,7.57c7.629,8.141,13.541,11.989,16.99,11.059,2.993-.807,5.972-5.726,5.972-9.862,0-4.117-4.6-12.383-9.076-16.325a101.4,101.4,0,0,0-11.814-9.294c-7.348-5.238-15.441-8.306-19.874-7.533-4.818.84-4.676-1.283.706-10.6,8.772-15.192,9.229-22.4,2.066-32.543-9.08-12.861-9.726-13.968-9.558-16.389a8.459,8.459,0,0,1,2.476-4.633c2.773-2.609,3.06-1.842-6.729-17.973-3.909-6.441-7.4-12.342-7.761-13.115a149.166,149.166,0,0,0-7.327-14.434c-1.487-2.528-2.6-4.965-2.477-5.415.36-1.3-2.352-6.382-3.4-6.382-.565,0-.733.857-.413,2.108,1.51,5.913,1.554,8.775.155,10.023-1.182,1.054-1.783,1.059-3.571.031-1.183-.68-2.15-1.619-2.15-2.087s-2.158-4.736-4.8-9.485-4.8-9.185-4.8-9.858-2.158-5.319-4.8-10.324-4.8-9.747-4.8-10.539-1.17-3.294-2.6-5.561-2.607-4.619-2.616-5.226a4.456,4.456,0,0,0-1.135-2.342,40.571,40.571,0,0,1-3.561-6.643,27.171,27.171,0,0,0-6.433-8.9C478.1,248.392,462.268,230.1,455.2,215.785a65.082,65.082,0,0,0-5.958-9.162c-3.774-4.808-25.965-27.046-31.854-31.921-1.63-1.349-6.621-5.635-11.09-9.523-13.607-11.837-35.938-29-37.735-29a22.607,22.607,0,0,1-4.732-3.052c-6.034-4.571-13.482-8.636-13.821-7.544-.8,2.572-2.528,3.976-4.28,3.472-1.718-.493-1.855-1.114-1.744-7.87.106-6.418-.124-7.615-1.841-9.581-2.183-2.5-2.408-3.614-1.028-5.1.972-1.044,11.027,2.086,19.122,5.952,2.158,1.031,7.848,3.45,12.644,5.376,12.715,5.107,9.664,3.057,37.054,24.9,6.784,5.41,15,11.944,18.253,14.52,6.777,5.364,15.729,12.676,25.792,21.066,12.426,10.362,16.255,13.529,20.966,17.342,5.734,4.642,32.7,27.985,38.633,33.447,2.406,2.214,7.393,6.765,11.083,10.115,12.831,11.648,35.769,34.414,43.032,42.709,9.822,11.217,19.388,24.3,21.448,29.323,1.113,2.715,2.586,4.556,4.332,5.414,3.669,1.8,8.521,4.917,9.925,6.369,1.939,2.005-.284,5.507-3.027,4.767l-2.144-.578,1.473,3.072a49.045,49.045,0,0,0,3.464,5.887,27.684,27.684,0,0,1,2.974,5.621,61.438,61.438,0,0,0,4.2,8.178c3.09,5.156,3.716,5.641,15.611,12.093,6.816,3.7,12.2,7.059,11.961,7.471s-2.567,1.473-5.176,2.357c-4.408,1.493-4.707,1.778-4.218,4.019a9.744,9.744,0,0,0,1.286,3.3,4.548,4.548,0,0,1,.76,2.527c0,2.128,3.9,9.984,6.361,12.817,2.481,2.854,6.074,4.845,8.747,4.845,2.185,0,3.2,2.6,3.2,8.168,0,1.484.594,2.479,1.657,2.778,1.185.333,1.821,1.643,2.234,4.6.335,2.4,1.042,4.131,1.69,4.131,1.146,0,3.909,10.082,9.749,35.584,1.709,7.463,3.474,14.043,3.922,14.623a13.37,13.37,0,0,1,1.158,4.88c.374,4.176,3.761,16.042,4.986,17.469a4,4,0,0,1,.764,2.25c0,1.539,8.613,26.328,9.653,27.783a41.907,41.907,0,0,1,2.071,7.494c2.068,9.708,5.8,23.285,6.688,24.3a4.182,4.182,0,0,1,.773,2.368c0,3.056,4.685,16.762,8.948,26.179a100.246,100.246,0,0,0,9.926,17.03l5.505,7.266-1.36,3.5a13.009,13.009,0,0,0-.81,6.644c1.027,5.88,7.879,12.173,15.07,13.841,1.559.361,2.834,1.045,2.834,1.52s.6.862,1.335.862c2.191,0,2.277,1.987.424,9.77a72.091,72.091,0,0,0-1.76,14.78c0,6.614.226,7.63,2.162,9.709,2.407,2.586,4.554,2.441,10.034-.678,4.234-2.41,4.659-2.216,3.9,1.783a52.164,52.164,0,0,0-.757,5.387,7.662,7.662,0,0,1-.642,2.81,104.49,104.49,0,0,0-2.525,10.941c-1.948,9.865-1.956,10.172-.562,22.015,1.637,13.913,4.322,25.984,6.237,28.041a4.9,4.9,0,0,1,1.335,2.24c0,.444.756,1.065,1.681,1.38s2.443,1.96,3.374,3.656c1.44,2.623,1.677,4.747,1.589,14.245l-.1,11.162,3.734,4.085a36.788,36.788,0,0,1,4.906,6.558c1.952,4.118,4.946,19.518,5.466,28.109.537,8.888,1.77,11.964,5.159,12.878a45.068,45.068,0,0,1,6.554,2.841c4.9,2.539,6.784,5.677,5.4,8.991-.711,1.7-.359,3.209,1.812,7.737a37.726,37.726,0,0,0,3.42,6.183,4.22,4.22,0,0,1,.966,2.32c.328,2.4,2.924,3,13.35,3.114l8.91.094,3.516,5c1.934,2.752,3.527,5.387,3.54,5.855s1.779,3.349,3.924,6.4c3.8,5.407,4.583,7.114,3.247,7.081-.36-.01-3.5-.81-6.976-1.78-6.118-1.707-6.322-1.709-6.322-.045,0,2.892,1.444,5.915,4.31,9.026,2.593,2.815,2.643,3,.957,3.576-.979.334-1.779.932-1.779,1.33s-1,1.214-2.229,1.814c-2.495,1.221-2.13,2.647,1.006,3.928,2.474,1.01,2.788,4.149.667,6.666-1.989,2.361-1.968,13.9.032,17.174,1.3,2.128,2,2.357,7.3,2.366l5.866.01-2.851,2.414c-5.613,4.752-6.394,8.978-4.138,22.39a121.136,121.136,0,0,1,1.291,16.2c.028,7.923.216,8.9,2.088,10.773a15.9,15.9,0,0,1,3.1,6.106c.991,3.828,1.183,4.011,3.611,3.438,3.677-.867,4.094,1.3,1.753,9.111-3.353,11.184-2.862,20.239,1.365,25.146a8.937,8.937,0,0,1,2.061,3.344c0,.523,1.292,2.608,2.872,4.633a96.285,96.285,0,0,1,5.766,8.611c2.368,4.034,2.7,5.183,1.818,6.323-1.694,2.193-2.858,1.719-8.357-3.4ZM613.485,973.406c-5.654-4.339-17.422-16.441-23.413-24.077-16.222-20.677-21.833-31.237-24.581-46.258-.812-4.442-1.831-8.076-2.264-8.076s-.555-.4-.272-.9c.806-1.4-1.88-7.446-5.627-12.664-1.878-2.615-4.318-6.089-5.422-7.72s-4.267-5.924-7.029-9.539c-7.51-9.83-8.373-11.806-9.283-21.233-.78-8.087-3.369-17.177-5.719-20.081a45.836,45.836,0,0,1-3.5-6.838,63.728,63.728,0,0,0-5.245-9.485,63.837,63.837,0,0,1-3.859-6.018,75.112,75.112,0,0,0-5.321-7.571c-2.388-3.083-4.342-5.9-4.342-6.256s-3.99-5.706-8.866-11.885-8.844-11.912-8.817-12.74-1.518-6.876-3.432-13.44c-3.469-11.892-3.492-11.937-6.662-12.9-4.577-1.386-6.908-3.844-7.18-7.57-.264-3.626.679-7.413,1.847-7.413.43,0,1.2-.841,1.713-1.868.736-1.477.438-3-1.426-7.26-1.3-2.966-2.682-5.533-3.08-5.7a1.868,1.868,0,0,1-.724-1.621c0-.72-1.472-3.678-3.27-6.574s-4.055-6.606-5.014-8.245c-2.666-4.555-12.379-19.085-17.125-25.618a55.871,55.871,0,0,1-4.239-6.323c0-.269,1.373-.489,3.052-.489s3.052-.422,3.052-.937a.867.867,0,0,0-.766-.937c-.421,0-1.267-1.37-1.878-3.045-1.045-2.862-3.8-7.726-15.274-26.932-2.615-4.379-4.755-8.543-4.755-9.253s-1.539-4.294-3.42-7.964c-7.642-14.91-14.878-46.151-11.055-47.727.672-.277,1.47-2.114,1.773-4.082.613-3.97-1.474-18.472-2.928-20.355-.7-.911-.191-1.628,2.119-2.964,3.257-1.884,3.883-4.11,1.7-6.054-2.892-2.579-14.738-8.4-17.094-8.4-1.369,0-2.489-.388-2.489-.862s-1.177-1.14-2.616-1.48a6.794,6.794,0,0,1-2.616-.933c0-.174,1.373-3.1,3.052-6.5,1.972-3.994,3.052-7.464,3.052-9.809V495.19l-6.1-.37c-6.394-.388-9.235-2-8.271-4.7a5.507,5.507,0,0,1,2.51-2.421c2.283-1.118,5.165-7.006,5.139-10.5-.009-1.3-1.1-10.41-2.432-20.246l-2.414-17.883-4.461-.853-4.461-.853-1.825-12.821c-1.117-7.845-2.43-13.813-3.384-15.376-5.2-8.531-25.449-27.336-46.425-43.122-1.753-1.32-2.247-1.3-5.45.218-1.937.918-3.522,1.947-3.522,2.286s-2.955,1.364-6.567,2.278c-6.159,1.558-6.8,1.565-10.357.106-4.715-1.934-6.3-3.794-7.079-8.28-.645-3.737-.372-4.057,2.2-2.58a3.906,3.906,0,0,0,2.973.377c1.167-.481,1.191-.892.174-3.041a33.522,33.522,0,0,1-1.8-8.033c-.871-7.685-6.2-18.208-12.971-25.631l-5.371-5.885,1.962-3.668c2.869-5.363,2.548-6.92-2.112-10.235-2.241-1.594-4.595-2.9-5.232-2.9s-1.159-.322-1.159-.715-2.747-2.149-6.1-3.9-6.1-3.414-6.1-3.69a17.914,17.914,0,0,1,2.775-3.578c1.526-1.691,2.53-3.338,2.231-3.659s-5.079-.522-10.623-.445-10.079-.234-10.079-.69a6.223,6.223,0,0,1,1.833-2.611c3.023-2.939,4.271-6.541,4.271-12.326,0-4.99-.34-5.979-3.8-11.054-3.816-5.6-11.784-14.211-14.856-16.051-1.251-.749-1.509-1.588-1.069-3.474.521-2.23.938-2.46,4.046-2.231,1.906.14,3.466.552,3.467.915s1.473.951,3.271,1.306a10.168,10.168,0,0,1,3.706,1.236c.573.776,15.129,6.634,16.483,6.634a15.214,15.214,0,0,1,4.273,1.793c9.426,5.24,12.33,6.639,13.807,6.65.894.005,3.981,1.487,6.858,3.291s8.371,4.989,12.208,7.079,7.565,4.185,8.284,4.657,5.232,3.466,10.028,6.654,10.682,7.1,13.08,8.687,8.217,6.05,12.93,9.91,9.446,7.651,10.517,8.424c7.868,5.677,35.532,34.534,44.006,45.9,1.728,2.319,6.627,8.326,10.887,13.349l7.745,9.134,7.1.011,7.1.011,2.18,3.5a42.3,42.3,0,0,1,2.844,5.251,146.039,146.039,0,0,0,7.613,13.708,43.918,43.918,0,0,1,2.469,4.684c1.929,4.016,1.96,4.38.654,7.7a33.71,33.71,0,0,0-1.371,3.892,20.672,20.672,0,0,0,4.142,3c11.738,7.349,28.859,25.353,30.887,32.481.55,1.932,1.33,3.513,1.734,3.513s.734.971.734,2.159c0,3.589,4.765,10.53,14.72,21.441l9.453,10.362.529,8.053c.517,7.874.6,8.122,3.828,11.139a42.051,42.051,0,0,0,5.671,4.485c2.78,1.641,4.368,4.413,3.661,6.393-.9,2.506-2.8,2.424-6.261-.273a19.536,19.536,0,0,0-7.065-3.312l-3.664-.665,1.863,3.84,1.863,3.84L500.5,519.3l-2.053,1.829,3.924,3.746c2.158,2.061,4.218,3.764,4.578,3.786,1.491.091.484,1.915-1.888,3.421a6.986,6.986,0,0,0-2.935,3.819c-.426,2.392.632,16.013,1.3,16.729a80.487,80.487,0,0,0,9.881,2.308c5.21,1.028,9.707,2.185,9.994,2.571,6.015,8.082,8.826,12.289,16.36,24.485,4.922,7.968,9.4,16.1,9.948,18.07s1.231,3.581,1.515,3.58.381,2.336.215,5.192c-.241,4.154-.8,5.786-2.819,8.155a21.022,21.022,0,0,0-5.568,14.942c.024,4.614-.243,5.492-1.964,6.481-1.095.629-2.114.968-2.264.753s-2.133-3.237-4.406-6.715-4.324-6.323-4.558-6.323c-.763,0-7.21,3.7-11.314,6.5l-4,2.728,2.4,1.709c1.321.94,4.378,2.763,6.791,4.051s4.509,2.782,4.655,3.32-1.015,1.482-2.581,2.1a36.913,36.913,0,0,0-5.615,2.947c-2.638,1.74-2.724,1.982-1.83,5.112s1.187,3.319,5.818,3.941c2.852.383,5.321,1.279,5.944,2.157a5.017,5.017,0,0,1-1.044,7.2c-3.219,2.266-5.5,6.835-7.4,14.789-2.2,9.247-1.206,17.3,2.686,21.716,3.09,3.506,3.18,5.534.336,7.536-3.336,2.348-2.639,3.193,2.638,3.193,4.4,0,4.893.212,5.693,2.472,1.032,2.916,1.109,2.808-4.678,6.514-4.463,2.858-4.521,2.953-4.261,7.026a68.968,68.968,0,0,0,4.647,19.372c1.037,2.436,2.951,6.959,4.254,10.05a76.488,76.488,0,0,0,6.239,11.242c2.128,3.091,4.438,6.521,5.133,7.621s4.207,6.159,7.8,11.242,6.933,10.084,7.412,11.115c1.267,2.723,1.607-14.46.517-26.191-.608-6.549-.588-9.689.069-10.539,2.14-2.77,5.172-.3,5.673,4.611a10.086,10.086,0,0,0,1.153,4.015c.471.61.644,1.337.385,1.616-.8.863,2.84,11.054,7.461,20.867a187.652,187.652,0,0,0,15.49,27.468l3.716,5.32-7.571,7.614-7.571,7.614,3.637,5.725c2,3.149,3.637,6.1,3.637,6.557a3.751,3.751,0,0,0,1.3,1.99c.714.637,1.08,1.538.813,2s.808,9.375,2.388,19.8l2.874,18.957,7.017,9.059,7.017,9.059,1.076,10.614c1.268,12.5,3.311,23.582,5.05,27.386a14.008,14.008,0,0,1,1.243,4.608c0,1.038,1.186,4.146,2.636,6.9,2.11,4.016,2.452,5.386,1.713,6.867-1.167,2.342-2.364,2.278-5.728-.3Z" transform="translate(-13.169 -106.309)" fill="#ff0"/>
</svg>
