
    <svg xmlns="http://www.w3.org/2000/svg" width="565.043" height="125.019" viewBox="0 0 482.043 125.019">
  <path id="Path_1726" stroke-width="8px" stroke="#000000" data-name="Path 1726" d="M50.848,24.92c0,4.793-1.2,5.792-5.991,5.792H25.086v-96.66H44.857c4.793,0,5.991,1,5.991,5.792ZM6.912-80.128V44.891H50.449c12.781,0,18.573-6.191,18.573-17.575v-89.87c0-11.383-5.792-17.575-18.573-17.575ZM113.757,30.312V-12.426h28.758V-27.005H113.757V-65.549h34.75V-80.128H95.583V44.891H149.9V30.312Zm99.855-110.44L196.637,28.315,180.061-80.128H161.488L184.055,44.891h25.563L232.185-80.128ZM290.9,24.52c0,4.793-1.2,5.792-5.991,5.792H273.325c-4.793,0-5.792-1-5.792-5.792V-59.758c0-4.793,1-5.792,5.792-5.792h11.583c4.793,0,5.991,1,5.991,5.792ZM268.133-80.128c-12.981,0-18.773,6.191-18.773,17.575v89.87c0,11.383,5.792,17.575,18.773,17.575H290.3c12.981,0,18.573-6.191,18.573-17.575v-89.87c0-11.383-5.592-17.575-18.573-17.575Zm108.443,0V24.52c0,4.793-1,5.792-5.991,5.792H359.2c-4.793,0-5.991-1-5.991-5.792V-80.128H335.036V27.316c0,11.383,5.792,17.575,18.773,17.575h22.168c12.981,0,18.773-6.191,18.773-17.575V-80.128Zm63.108,14.579h17.575c4.793,0,5.991,1,5.991,5.792v33.951c0,4.793-1.2,5.792-5.991,5.792H439.684Zm28.559,110.44h19.372L467.843-6.035c9.386-1.6,13.381-7.389,13.381-17.375V-62.553c0-11.383-5.592-17.575-18.573-17.575H421.71V44.891h17.974V-5.636h9.786ZM507.186-80.128l3.4,84.278H525.56l3.4-84.278Zm.6,125.019h20.171V20.326H507.785Z" transform="translate(-6.912 80.128)" fill="#000000"/>
</svg>
