<svg xmlns="http://www.w3.org/2000/svg" width="375.304" height="55.212" viewBox="0 0 375.304 55.212"><path d="M-172.6-10.75v-11.7h15.566V-33.2H-172.6V-44.462h18.06v-10.75h-33.11V0h33.884V-10.75Zm53.492-17.286,12.3-27.176H-122.98l-4.644,14.1-4.558-14.1H-149.21l13.158,27.176L-149.554,0h16l5.934-15.48L-121.69,0h16.942ZM-83.334-10.75v-11.7h15.566V-33.2H-83.334V-44.462h18.06v-10.75h-33.11V0H-64.5V-10.75Zm63.468-23.822v-9.976c0-6.45-3.44-10.664-12.642-10.664H-44.634c-9.2,0-12.642,4.214-12.642,10.664v33.884C-57.276-4.214-53.836,0-44.634,0h12.126c9.2,0,12.642-4.214,12.642-10.664V-20.3h-15.05v8.514c0,1.29-.688,1.892-2.15,1.892h-3.01c-1.462,0-2.15-.6-2.15-1.892V-43.43c0-1.29.688-1.892,2.15-1.892h3.01c1.462,0,2.15.6,2.15,1.892v8.858ZM11.61-55.212v42.57c0,1.29-.688,1.892-2.15,1.892H5.848c-1.462,0-2.15-.6-2.15-1.892v-42.57h-15.05v44.548C-11.352-4.214-7.912,0,1.29,0H14.018C23.22,0,26.66-4.214,26.66-10.664V-55.212Zm58.136,0H33.454v10.75H44.032V0h15.05V-44.462H69.746Zm6.794,0V0H91.59V-55.212ZM124.1-12.642c0,1.29-.688,1.892-2.15,1.892h-3.612c-1.462,0-2.15-.6-2.15-1.892V-42.57c0-1.29.688-1.892,2.15-1.892h3.612c1.462,0,2.15.6,2.15,1.892Zm-10.32-42.57c-9.2,0-12.642,4.214-12.642,10.664v33.884c0,6.45,3.44,10.664,12.642,10.664h12.728c9.2,0,12.642-4.214,12.642-10.664V-44.548c0-6.45-3.44-10.664-12.642-10.664Zm60.114,0v29.5l-12.3-29.5h-12.9V0h13.76V-28.982L174.752,0h12.9V-55.212Z" transform="translate(187.652 55.212)" fill="#ff0"/></svg>