<svg xmlns="http://www.w3.org/2000/svg" width="378.01" height="66.126" viewBox="0 0 378.01 66.126"><path d="M5.995,41.874V108H24.02V41.874Zm58.3,52.015c0,1.545-.824,2.266-2.575,2.266h-6.9V53.719h6.9c1.751,0,2.575.721,2.575,2.266Zm-27.5-52.015V108H67.177c11.021,0,15.141-5.047,15.141-12.772V54.646c0-7.725-4.12-12.772-15.141-12.772Zm74.984,53.251V81.117h18.643V68.242H111.776V54.749h21.63V41.874H93.751V108h40.582V95.125ZM162.04,85.34l5.253-23.793L172.34,85.34ZM177.181,108h18.128l-17-66.126H156.375L139.38,108H157.1l2.163-9.888h15.862Zm65.611-66.126H199.326V54.749H212V108H230.02V54.749h12.772Zm8.137,0V108h18.025V41.874Zm56.959,50.985c0,1.545-.824,2.266-2.575,2.266h-4.326c-1.751,0-2.575-.721-2.575-2.266V57.015c0-1.545.824-2.266,2.575-2.266h4.326c1.751,0,2.575.721,2.575,2.266Zm-12.36-50.985c-11.021,0-15.141,5.047-15.141,12.772V95.228c0,7.725,4.12,12.772,15.141,12.772h15.244c11.021,0,15.141-5.047,15.141-12.772V54.646c0-7.725-4.12-12.772-15.141-12.772Zm72,0V77.2L352.8,41.874h-15.45V108h16.48V73.289L368.555,108h15.45V41.874Z" transform="translate(-5.995 -41.874)" fill="#ff0"/></svg>