<svg xmlns="http://www.w3.org/2000/svg" width="975.725" height="164.275" viewBox="0 0 975.725 164.275">
  <g id="Group_685" data-name="Group 685" transform="translate(4798.276 9311.331)">
    <path id="Path_1756" data-name="Path 1756" d="M-4798.276-9147.056h975.725v-56.656l-56.569-45.061v-43.293l-92.455,43.293-72.977-55.592v41.521l-103.971-15.76-84.1,29.83-17.49-62.559-55.812,55.612-145.019,43.114-35.328-56.228-56.927,27.093v-50.326l-114.706,50.326-55.3-32.487-30.986,46.1-54.078,24.414Z" fill="#fff"/>
    <path id="Path_1757" data-name="Path 1757" d="M-4427.717-9251.742c2.229-4.288,57.4-44.009,57.4-44.009v26.24Z" fill="#fff"/>
    <path id="Path_1758" data-name="Path 1758" d="M-4179.555-9237.677l28.732-18.291s56.1,9.873,51.167,9.948-79.9,8.343-79.9,8.343Z"/>
    <path id="Path_1759" data-name="Path 1759" d="M-4513.753-9237.677l22.184-11.507v11.507Z"/>
    <path id="Path_1760" data-name="Path 1760" d="M-4710.674-9249.184l-28.952,36.989,24.49-11.791Z"/>
  </g>
</svg>
