<svg xmlns="http://www.w3.org/2000/svg" width="579.517" height="699.642" viewBox="0 0 579.517 699.642">
  <path id="Path_1720" data-name="Path 1720" d="M36.183,25.067,136.4,80.955l65.712,28.5,23.826,11.689,8.749-9.313,35.231-2.817,6.295-11.195,22.582-49.681,74.175,51.751,1.429.854L455.984,76.6l14.893,84.147,12.24,6.568,115.31,51.169-17.744,18.593-54.835,48.013,3.969,17.082,27.458,85.118-44.026-8.005-7.995-.679,2.518,24.843-.162,18.783,1.464,16.123-32.653-8.574-2.148,29.394-.393,43.595.709,73.809L477.8,711.407,413.341,601.448l-1.785,5.881L409.448,604l-27.425-39.438L365.242,538.2l-7.9,6.148L330.465,530,320.9,533.43l-1.591,15.687-5.614,69.558-10.093,96.3L284.42,683.8l-22.5-33.117-20.7-33.59-3.848,8.979-30.235-51.608-4.917-7.917L187.335,541.2l-38.513,35.994L146.18,562.4l-12.3-66.285-24.165,17.915-7.864,7.817L59.27,553.436,27.99,581.514l51.63-171.458,29.709-87.716,11.844-38.893-39.09-32.014-57.055-80.59L74.512,163.4l24.3-3.413L79.854,125.8,63.983,79.482Zm-4.225-4.382,2.649,5.187,27.744,54.3,15.829,46.2.051.148.076.136,17.712,31.934-21.753,3.056-49.5,7.446-2.84.428,1.659,2.343,57.053,80.591.138.195.185.151,38.174,31.265-11.5,37.759L77.945,409.489,26.3,581l-1.819,6.039,4.694-4.214,31.219-28.023L102.9,523.266l.1-.075.09-.09,7.773-7.727,21.787-16.153,11.785,63.5,2.639,14.78.572,3.2,2.377-2.223L186.928,544l13.766,23.446,4.939,7.956,30.213,51.569,1.771,3.023L239,626.772l2.505-5.844,18.912,30.688.02.033.023.032,22.477,33.085L302.094,715.9l2.724,4.427.541-5.168,10.095-96.3,5.617-69.6,1.476-14.542,7.778-2.79,26.188,13.978,1.014.541.907-.706,6.361-4.954,15.736,24.727.02.031.02.03,27.4,39.406,2.088,3.3,2.067,3.26,1.12-3.694.61-2.012L476.274,712.3l3.457,5.9-.162-6.834-3.211-134.834-.707-73.784.391-43.506,1.988-27.213,30.6,8.032,2.439.641-.229-2.512-1.456-16.034.162-18.7v-.1l-.01-.1-2.3-22.72,5.787.493,43.942,7.988,2.907.529-.908-2.811-27.435-85.049-3.712-15.976L581.847,238.4l.059-.052.055-.056L599.706,219.7l1.735-1.817-2.3-1.019L483.895,165.72l-11.425-6.13-14.743-83.3-.346-1.95-1.9.562L374.637,98.823l-.71-.425L299.8,46.684l-1.744-1.216-.878,1.935L274.63,97.013l-5.8,10.308-34.292,2.742-.681.055-.467.5-7.854,8.361-22.654-11.114-.037-.018-.038-.016L137.18,79.366,37.044,23.522Z" transform="translate(-21.925 -20.685)" fill="#ff0"/>
</svg>
