<svg xmlns="http://www.w3.org/2000/svg" width="524.495" height="623.029" viewBox="0 0 524.495 623.029">
  <path id="Path_1721" data-name="Path 1721" d="M55.38,45.751l91.429,50.99,58.056,16.074,22.069,9.111,8.477-7.569,32.146-2.57,6.539-9.075,20.6-45.323,67.466,47.069,1.316.634,74.228-21.966,13.468,76.1,10.054,6.734,104.259,46.264-11.417,16.109-49.59,43.421,1.731,14.928,24.827,76.961-40-7.272-6.193.424,2.569,22.521-2.348,15.274,1.329,14.643-25.767-2.953-5.165,22.278-1.922,39.391-.5,67.051,2.919,122.614-55.52-94.71-1.628,4.361L397,564.387l-22.755-28.439L359.8,513.239l-6.666,4.372-22.518-13.073-8,2.2-1.846,11.65-5.843,59.705L302.3,659.077,283.36,632.346l-22.333-24.677-20.454-28.779-4.132,6.668-30.105-44.185-4.383-5.237-12.166-16.477L158.58,554.31l-2.248-9.856-13.358-59.476L121.9,496.11l-6.658,7.413L78.23,523.07,49.671,548.412l39.21-150.774,26.507-76.7,9.164-34.217L86.659,267.111,46.189,187.12l42.26-13.971,16.2-6.3L85.374,134.968l-3.42-37.2Zm-4.225-4.382L53.8,46.556l26.418,51.71,3.39,36.865.037.405.21.347,18.187,30.077-14.2,5.524L45.634,185.441l-1.95.645.926,1.833L85.08,267.91l.258.51.507.263,36.632,18.956-8.78,32.781L87.21,397.061l-.023.065-.017.068L47.96,547.966,46.5,553.594l4.349-3.861,28.4-25.2,36.821-19.446.278-.147.212-.236L123,497.527l18.754-9.906,12.851,57.221,2.248,9.862.758,3.323,2.281-2.533,29.758-33.042,10.879,14.735.032.042.035.041,4.325,5.17,30.057,44.113,1.532,2.249,1.433-2.313,2.728-4.4,18.912,26.609.061.085.069.078,22.263,24.6L300.854,660.1l2.521,3.557.671-4.307,12.621-80.986.008-.049,0-.051,5.839-59.653,1.659-10.471,6.186-1.7,21.879,12.7.945.549.912-.6,5.167-3.389,13.488,21.2.051.081.061.075,22.693,28.363,1.757,2.786,1.9,3.021,1.25-3.344L400.8,567l53.637,91.5,3.457,5.9-.162-6.833L454.81,534.951l.5-66.959,1.913-39.2L462,408.211l24.2,2.773,2.159.247-.2-2.165-1.31-14.429,2.316-15.06.037-.234-.027-.236-2.359-20.683,4.126-.282,39.782,7.234,2.907.528-.906-2.811-24.775-76.8-1.6-13.833,48.892-42.81.157-.138.121-.169,11.415-16.109,1.25-1.762L566.2,210.6,462.086,164.4l-9.3-6.229L439.449,82.816l-.345-1.95-1.9.562L363.631,103.2l-.573-.277L295.709,55.937l-1.742-1.216-.88,1.935L272.558,101.82l-5.959,8.269-31.33,2.5-.593.047-.443.4-7.649,6.83-21.045-8.688-.1-.041-.1-.028-57.85-16.017L56.242,44.206Z" transform="translate(-43.684 -41.369)" fill="#ff0"/>
</svg>
