<svg xmlns="http://www.w3.org/2000/svg" width="378.488" height="420.518" viewBox="0 0 378.488 420.518">
  <path id="Path_1724" data-name="Path 1724" d="M285.543,91.259l47.338,33.027.973-.033L386,108.822l9.193,51.939,3.5,7.231,71.1,31.553,7.569,8.652-33.857,29.646-4.979,8.471L455.46,298.8l-27.919-5.076-.788,3.729,2.724,15.564-8.91,4.743.928,10.209-5.112,13.907-14.218.929-6.512,26.781-4.127,46.778,2.046,85.951-28.7-48.959-1.165-.2-.914-1.505-8.745,4.558-7.461-11.726-2.974-.962-9.438-9.252-3.307-1.5-2.607-.462-6.535,30.146L301.52,497.5l-18.213-13.422-21.832.641-19.717-14.347-4.979-.266L207.06,448.2,204.281,451l-4.009,10.146L190.98,491.78l-1.065,4.952-16.528-39.049-11.813-9.214-3.039,6.2-20.3-16.589-20.393,17.134L119.8,366.5l16.9-43.654,1.128-20.19-34.308,17.6,9.282-78.193,20.585-33.556-8.1-14.972-20.224-24.954,33.928-9.862L116.1,113.916l65.081,36.294,35.081-21.191,16.8,1.375,7.66-2.334,22.89-1.83,7.271-2.72Zm-.731-2.666-.88,1.935L269.576,122.11l-6.353,2.377-22.643,1.81-.191.016-.184.055L232.87,128.6l-16.463-1.347-.569-.047-.49.3-34.2,20.66-64.184-35.795-5.086-2.837,2.65,5.187,21.917,42.9-31.872,9.266-2.557.743,1.676,2.069,20.121,24.826,7.536,13.932-20.053,32.687-.2.33-.045.386-9.282,78.193-.391,3.3,2.955-1.515,31.563-16.2-.94,16.829-16.8,43.394-.112.29-.007.311-1.953,88.715-.086,3.909,2.992-2.515,19.27-16.192,19.165,15.663,1.727,1.411.98-2,2.08-4.248,9.733,7.593,16.35,38.626,2.182,5.154,1.176-5.472,1.049-4.88,9.249-30.492,3.848-9.742,1.449-1.462,28.49,21.009.426.314.53.028,4.455.239,19.293,14.037.489.356.6-.018,21.223-.623,17.721,13.06,1.593,1.173.988-1.714,20.2-35.052.138-.239.058-.27,6.174-28.484.712.126,2.82,1.282,9.215,9.034.3.291.4.128,2.368.765,7.12,11.189.871,1.368,1.439-.75,7.275-3.793.054.089.418.688.792.137.356.062,28.285,48.252,3.458,5.9-.164-6.834-2.043-85.852,4.106-46.546,6.175-25.389,12.92-.844,1.148-.075.4-1.08,5.112-13.907.138-.374-.037-.4-.82-9.04,7.874-4.191,1.131-.6-.22-1.264-2.666-15.226.363-1.714,26.228,4.77,2.907.528-.908-2.811-16.688-51.734,4.432-7.54,33.643-29.457,1.33-1.165-1.165-1.332-7.569-8.652-.257-.294-.357-.158L400,166.638l-3.107-6.426-9.149-51.7-.346-1.95-1.9.562-51.933,15.368-.158.006L286.554,89.809Z" transform="translate(-101.372 -88.593)" fill="#ff0"/>
</svg>
