<svg xmlns="http://www.w3.org/2000/svg" width="349.716" height="387.116" viewBox="0 0 349.716 387.116">
  <path id="Path_1725" data-name="Path 1725" d="M286.948,103.849l40.628,28.346,45.649-13.508,9.077,51.285,73.95,32.815-35.828,31.372,14.3,44.332-23.894-4.345,3.79,18.076-11.1,1.233,2.566,28.258-17.236-6.188L380.811,338.1l-5.336,40.02,1.755,73.731-21.386-36.482L351.77,430.93l-16.557-26.016-6.765,20.293-22.73,19.741-17.971-8.986-21.667,9.081-54.322-26.6-2.245,5.487-3.945,58.2-26.311-48.236-1.831,5.8L162.7,411.053l-17.672,14.4-10.466-68.031,13.7-32.64-1.55-15.514L113.6,339.275,152.823,221.6l-36.741-40.508,46.378-.748-21.664-42.4,56.3,31.4,27.424-33.613,49.751-3.978Zm-.731-2.666-.88,1.935-12.247,26.945-48.712,3.895-.753.061-.477.585L196.66,167.066l-55-30.674-5.086-2.835,2.649,5.185,20.373,39.877-43.54.7-3.906.064,2.625,2.893,36.044,39.743-38.9,116.7-2.134,6.4,5-4.53L145.3,312.934l1.157,11.576-13.526,32.226-.193.46.075.494,10.466,68.029.47,3.054,2.4-1.951L162.122,413.8l13.73,26.694,1.966,3.821,1.295-4.1.58-1.839,24.321,44.589,2.907,5.329.411-6.056,3.926-57.915,1.421-3.471L265.3,446.63l.72.353.741-.311,20.917-8.766,17.244,8.622,1.059.53.892-.777,22.732-19.739.364-.318.154-.459L335.716,409l14.561,22.883,2.176,3.42,1.027-3.921,2.995-11.432,19.23,32.8,3.457,5.9L379,451.813l-1.752-73.593,5.292-39.7,7.387-20.732,15.565,5.588,2.611.936-.251-2.761-2.409-26.533,9.373-1.041,1.936-.216-.4-1.9-3.251-15.5,21.307,3.873,2.908.528-.908-2.811-13.943-43.223,34.953-30.607,2.084-1.824-2.532-1.123-73.09-32.434-8.912-50.357-.346-1.95-1.9.562L327.89,130.258,287.959,102.4Z" transform="translate(-109.785 -101.183)" fill="#ff0"/>
</svg>
