<svg xmlns="http://www.w3.org/2000/svg" width="469.532" height="548.546" viewBox="0 0 469.532 548.546">
  <path id="Path_1722" data-name="Path 1722" d="M74.632,66.436l82.646,46.091,50.4,3.652,20.314,6.532,8.2-5.823,29.06-2.324,6.784-6.956,18.621-40.966,60.756,42.388,1.2.412,66.87-19.789L431.527,157.7l7.868,6.9,93.207,41.36-5.088,13.624-44.346,38.829-.505,12.776,22.2,68.8-35.973-6.539-4.393,1.525,2.621,20.2-4.536,11.763,1.2,13.166-18.882,2.667-8.183,15.161-3.453,35.187-1.71,60.294,2.629,110.393L387.6,524.349l-1.474,2.84-1.512-2.416-18.084-17.44L354.4,488.284l-5.435,2.594-18.159-11.8-6.436.963-2.1,7.614L316.2,537.508l-15.149,65.675-18.7-22.3-22.167-16.237-20.208-23.97-4.413,4.358-29.978-36.762-3.848-2.556-9.447-7.6-23.9,33.314-1.853-4.921-14.416-52.667-17.99,4.351-5.451,7.011-31.438,7.5L71.409,515.31,98.2,385.223l23.3-65.685L127.99,290l-36.7-7.2L67.406,203.4l35.035-20.5,8.1-9.193L90.95,144.136l9.027-28.09Zm-4.225-4.382,2.649,5.187L98.071,116.2,89.266,143.6l-.26.809.469.709,18.844,28.441-7.017,7.963L66.512,201.873l-1.2.7.4,1.334L89.6,283.3l.308,1.021,1.045.206,34.925,6.856L119.8,319.049,96.532,384.631l-.041.114-.024.12L69.676,514.953,68.614,520.1l3.958-3.462L98.08,494.322l31.013-7.4.606-.144.381-.49,5.071-6.522,15.721-3.8,13.961,51.011.023.079.028.078,1.853,4.92,1.165,3.1,1.927-2.687,22.813-31.794,7.991,6.432.062.049.068.045,3.625,2.408L234.2,546.157l1.229,1.507,1.385-1.367,3.051-3.012,18.974,22.506.137.162.171.124,21.994,16.112L299.7,604.32l2.282,2.72.8-3.458,15.149-65.675.021-.09.011-.093L324.014,488l1.759-6.377,4.636-.695L348,492.361l.832.539.894-.426,4.022-1.919,11.281,17.726.113.178.151.145,17.929,17.289,1.4,2.232,1.642,2.625,1.425-2.745,44.96,76.7,3.457,5.9-.162-6.834-2.628-110.346,1.706-60.187,3.413-34.772,7.589-14.061,18-2.543,1.666-.234-.152-1.676-1.158-12.755,4.387-11.378.162-.418-.058-.446-2.437-18.775,2.594-.9,35.516,6.457,2.906.528-.907-2.811-22.1-68.505.462-11.7,43.774-38.329.336-.294.155-.418,5.088-13.622.583-1.56-1.522-.675-92.961-41.252-7.2-6.312L421.226,89.345l-.345-1.95-1.9.562-66.328,19.628-.432-.148L291.669,65.19l-1.742-1.216-.88,1.935-18.492,40.685-6.1,6.26-28.4,2.271-.486.04-.4.281-7.483,5.312-19.47-6.261-.2-.065-.212-.016L157.8,110.79l-82.3-45.9Z" transform="translate(-65.31 -62.054)" fill="#ff0"/>
</svg>
