<svg xmlns="http://www.w3.org/2000/svg" width="416.035" height="483.57" viewBox="0 0 416.035 483.57">
  <path id="Path_1723" data-name="Path 1723" d="M286.664,78.67l54.047,37.708,1.087.189,59.509-17.61,10.619,59.992,5.681,7.065,82.156,36.457L501,213.607l-39.1,34.238-2.742,10.623,19.564,60.647-31.945-5.809-2.591,2.628,2.673,17.882-6.723,8.254,1.062,11.688-12,8.287L418,370.09l-4.983,30.985L410.1,454.611l2.338,98.173-37.64-64.21-1.32,1.319-1.212-1.961-13.416-6.44L349.058,466.1l-4.2.816-13.8-10.526-4.872-.27L323.83,459.7l-6.3,40L299.85,550.064l-18.456-17.858-22-7.8-19.962-19.158-4.7,2.046-29.848-29.339-3.314.124-6.727,1.271-16.6,31.974-1.459.016-15.472-45.858-14.9-2.432-4.246,6.607L116.3,465.112,93.189,484.983l14.372-109.4,20.105-54.67,3.807-24.865-35.5,5.2-7.3-78.794,27.811-27.028V183.342L96.57,156.081,118.049,137.1,93.929,89.9l73.864,41.193,42.739-8.769,18.556,3.954,7.933-4.079L263,120.117l7.026-4.839ZM285.933,76l-.88,1.935L268.616,114.1l-6.233,4.291-25.5,2.039-.353.028-.315.162-7.371,3.791L210.9,120.59l-.361-.078-.363.075-42.1,8.636L94.791,88.351l-5.085-2.837L92.355,90.7l23.494,45.987L95.4,154.755l-1.207,1.068.95,1.3,19.567,26.8v10.759L87.434,221.184l-.606.589.078.843,7.3,78.792.172,1.857,1.846-.27,33.137-4.852-3.419,22.325-20.041,54.5-.068.185-.027.195-14.372,109.4-.6,4.589,3.509-3.018L116.823,467l25.044,4.4,1.158.2.635-.99,3.618-5.63,12.7,2.073,15.132,44.849.411,1.217,1.285-.014,1.459-.016,1.06-.011.49-.942,16.2-31.21,5.753-1.087,2.419-.09,29.3,28.8.852.837,1.1-.477,3.615-1.574,19.111,18.341.275.264.359.127,21.637,7.67,18.178,17.59,1.985,1.921.914-2.605L319.2,500.287l.052-.152.025-.158,6.244-39.623,1.584-2.406,3.313.184,13.367,10.2.631.482.778-.151,3.022-.586,9.145,14.369.271.426.456.219,12.949,6.217.94,1.521,1.175,1.9,1.281-1.281,36.482,62.236,3.457,5.9-.162-6.833-2.336-98.1,2.909-53.373L419.63,371.1l10.6-7.617,11.972-8.269.849-.586-.093-1.028-1-10.97,6.267-7.694.494-.606-.116-.772-2.542-17.008,1.313-1.333,31.026,5.641,2.907.528-.908-2.811L461,258.415l2.478-9.6,38.691-33.878.695-.609-.1-.918-1.24-11.138-.113-1.008-.928-.412L418.717,164.57l-5.129-6.377L403.05,98.649,402.7,96.7l-1.9.562-59.112,17.493-.292-.051L287.675,77.22Z" transform="translate(-86.828 -76.004)" fill="#ff0"/>
</svg>
