<svg xmlns="http://www.w3.org/2000/svg" width="328.535" height="360.588" viewBox="0 0 328.535 360.588"><path d="M288,117.515l34.36,23.971L361.509,129.9l7.991,45.147,63.924,28.366-28.582,25.026,11,34.1-21.975-3.995L398.5,280.63l-9.822,1.092,2,22.047-11.589-4.16L367.1,333.261l-5.593,41.95.8,33.561L348.724,385.6l-4.394,16.78L333.142,384.8l-9.188,7.991-7.991,23.971L300.78,429.947l-15.98-7.991-21.715,9.1L202.9,401.579,195.7,419.16l-1.6,23.572-11.987-21.975-7.989-18.778-2.4,7.591-8.924-17.352-13.45,10.959-7.19-46.745,13.583-32.362-3.911-39.133-18.71,16.956,28.388-85.165-25.162-27.743,39.966-.645-13.514-26.452,33.549,18.71L226.542,143.6l51.466-4.116Zm-2.923-10.667-3.517,7.738-8.265,18.182-47.313,3.783-3.009.241-1.909,2.338-26.435,32.4-28.37-15.822L145.91,144.364l10.6,20.745,8.35,16.342-28.616.463-15.625.251,10.5,11.575L153.5,218.418l-27.079,81.238-8.535,25.6,20-18.122,8.314-7.535,2.337,23.387-12.888,30.707-.774,1.841.3,1.973,7.192,46.745,1.879,12.217,9.582-7.809,6.682-5.443,4.931,9.588,7.862,15.284,1.81-5.732.5,1.168.134.316.165.3,11.986,21.973,11.627,21.317,1.642-24.225,1.522-22.431,3.893-9.517,53.393,26.149,2.885,1.413,2.962-1.241,18.72-7.847,13.077,6.538,4.231,2.117,3.572-3.1L320.6,422.1l1.461-1.269.611-1.836,7.38-22.138,1.531-1.33,6.777,10.647,8.7,13.68,4.109-15.685.072-.28,4.959,8.457,13.827,23.587-.651-27.333-.787-33.007,5.422-40.663,9.358-26.269,4.914,1.764,10.439,3.748-1-11.047-1.375-15.142,2.93-.326,7.741-.86-1.6-7.622-2.471-11.788L414.58,269.5l11.627,2.114-3.629-11.247L413.006,230.7l25.08-21.96,8.333-7.3-10.125-4.492L375.81,170.106l-7.334-41.44-1.381-7.8-7.594,2.247-35.889,10.622-31.568-22.025Z" transform="translate(-117.883 -106.848)" fill="#ff0"/></svg>