<svg width="335.287" height="359.005" viewBox="0 0 335.287 359.005">
  <path id="Path_1702" data-name="Path 1702" d="M279.638,103.655l38.952,26.288,43.766-12.527,8.7,47.561,70.9,30.432L407.606,224.5l13.71,41.113-22.908-4.029,3.634,16.763L391.4,279.493l2.46,26.206-16.525-5.738L369.628,320.9l-5.116,37.113,1.683,68.377-20.5-33.833-3.906,14.427-15.873-24.127-6.486,18.819-21.792,18.307L280.4,411.65l-20.773,8.422L207.55,395.4l-2.153,5.089-3.783,53.974L176.39,409.728l-1.756,5.378-14.12-26.555L143.571,401.9l-10.034-63.091,13.136-30.27-1.486-14.388-31.747,27.829,37.609-109.132-35.225-37.566,44.464-.694-20.77-39.325,53.974,29.117,26.292-31.172,47.7-3.689Zm-.7-2.472-.843,1.794-11.742,24.988-46.7,3.612-.722.056-.458.542-25.395,30.106-52.732-28.447-4.876-2.629,2.54,4.809L157.539,173l-41.743.651-3.745.059,2.517,2.683,34.557,36.857L111.831,321.467l-2.046,5.936,4.794-4.2,29.254-25.644,1.109,10.735-12.968,29.886-.186.427.072.458,10.034,63.089.451,2.832,2.3-1.81,15.32-12.075,13.163,24.755,1.884,3.544,1.241-3.8.556-1.705,23.318,41.351,2.788,4.942.394-5.616,3.764-53.709,1.362-3.219,50.454,23.9.69.327.711-.288,20.054-8.13,16.533,8,1.015.491.856-.72,21.794-18.306.349-.295.148-.426,5.358-15.551,13.96,21.221,2.086,3.172.984-3.637,2.871-10.6,18.436,30.42,3.314,5.47-.156-6.338-1.68-68.249,5.074-36.815,7.082-19.227,14.923,5.182,2.5.868-.241-2.56-2.31-24.606,8.987-.965,1.856-.2-.383-1.767-3.117-14.376,20.428,3.592,2.788.49-.871-2.607-13.368-40.085,33.511-28.384,2-1.692-2.427-1.041L372.57,163.831l-8.544-46.7-.332-1.809-1.82.521-42.983,12.3-38.284-25.836Z" transform="translate(-109.785 -101.183)" fill="#ff1a1a"/>
</svg>
