<svg xmlns="http://www.w3.org/2000/svg" width="634.683" height="777.044" viewBox="0 0 634.683 777.044">
  <path id="Path_1719" data-name="Path 1719" d="M17.054,4.382,225,120.354l9.022-11.058,38.315-3.064,30.615-67.35,82.427,57.507L474.33,70.067l16.318,92.2,140.788,62.474-84.151,73.685,36.294,112.51L525.73,400.415l6.089,67.056-39.538-14.193,7.426,311.929L426.308,640l-1.937,7.4-53.613-84.25-9.128,7.927-31.241-15.62-11.131,4.665L304.97,770.867,241.936,655.3l-3.565,11.291L184.951,562.738l-45.819,37.334-14.28-92.824L6.377,614.616,117.858,280.172,3.935,154.564l89.11-1.437ZM12.829,0l2.649,5.185L90.18,151.4,3.907,152.8,0,152.859l2.625,2.893L115.853,280.594,4.7,614.057l-2.134,6.4,5-4.53L123.6,510.767l13.78,89.575.47,3.054,2.395-1.953,44.127-35.954L236.8,667.4l1.966,3.821,1.295-4.1,2.314-7.33,61.045,111.918,2.907,5.329.411-6.056,14.214-209.656,9.375-3.93,30.515,15.257,1.058.53.892-.775,7.577-6.582,52.512,82.519,2.176,3.42,1.027-3.921.859-3.278L498.181,766.1l3.458,5.9-.164-6.833L494.11,455.815l37.111,13.322,2.611.936-.251-2.761L527.7,402.571l55.561,10.1,2.907.53-.908-2.813-35.937-111.4L632.6,226.071l2.083-1.824-2.53-1.124L492.226,161.031,476.072,69.759l-.346-1.95-1.9.562L385.7,94.451,303.966,37.43l-1.744-1.216-.878,1.935-30.184,66.4-37.277,2.981-.753.061-.477.585-8.084,9.909L17.915,2.837Z" fill="#ff0"/>
</svg>
