<svg xmlns="http://www.w3.org/2000/svg" width="313.677" height="58.422" viewBox="0 0 313.677 58.422"><path d="M34.321,48.953c1.547,0,2.275.637,2.275,2V62.421c0,1.365-.728,2-2.275,2H28.042V48.953Zm4,47.047H55.432L44.694,74.615c5.642-1.456,7.826-5.278,7.826-10.647V48.862c0-6.825-3.64-11.284-13.377-11.284H12.117V96H28.042V75.252h1ZM77.91,84.625V72.249H94.381V60.874H77.91V48.953H97.02V37.578H61.985V96H97.839V84.625Zm50.414-2c0,1.365-.728,2-2.275,2H123.41c-1.547,0-2.275-.637-2.275-2V77.709H105.21v7.007c0,6.825,3.64,11.284,13.377,11.284h12.376c9.737,0,13.286-4.459,13.286-11.284V72.7c0-6.825-3-11.1-12.467-11.1h-8.554c-1.547,0-2.275-.637-2.275-2V50.955c0-1.365.728-2,2.275-2h2.639c1.547,0,2.275.637,2.275,2v4.914h15.925V48.862c0-6.825-3.549-11.284-13.286-11.284H118.313c-9.737,0-13.286,4.459-13.286,11.284V60.874c0,6.825,2.821,11.466,12.285,11.466h8.736c1.547,0,2.275.637,2.275,2Zm49.686-45.045V82.623c0,1.365-.728,2-2.275,2h-3.822c-1.547,0-2.275-.637-2.275-2V37.578H153.712V84.716c0,6.825,3.64,11.284,13.377,11.284h13.468c9.737,0,13.377-4.459,13.377-11.284V37.578Zm42.224,47.047V37.578H204.309V96h34.034V84.625Zm60.06-47.047h-38.4V48.953h11.193V96H269.01V48.953h11.284Zm29.575,45.045c0,1.365-.728,2-2.275,2h-2.639c-1.547,0-2.275-.637-2.275-2V77.709H286.754v7.007c0,6.825,3.64,11.284,13.377,11.284h12.376c9.737,0,13.286-4.459,13.286-11.284V72.7c0-6.825-3-11.1-12.467-11.1h-8.554c-1.547,0-2.275-.637-2.275-2V50.955c0-1.365.728-2,2.275-2h2.639c1.547,0,2.275.637,2.275,2v4.914h15.925V48.862c0-6.825-3.549-11.284-13.286-11.284H299.858c-9.737,0-13.286,4.459-13.286,11.284V60.874c0,6.825,2.821,11.466,12.285,11.466h8.736c1.547,0,2.275.637,2.275,2Z" transform="translate(-12.117 -37.578)" fill="#ff0"/></svg>