<svg xmlns="http://www.w3.org/2000/svg" width="505.043" height="125.019" viewBox="0 0 482.043 125.019">
  <path id="Path_1762" data-name="Path 1762" d="M119-126.564,105.669-32.039,88.953-126.564H60.1L43.382-32.039l-11.94-94.525H1.99L26.467,0H60.5L74.625-82.784,88.754,0h34.029L147.26-126.564ZM212.731-25.87c0,3.582-1.393,4.975-5.174,4.975h-9.552c-3.98,0-5.373-1.393-5.373-4.975v-74.824c0-3.582,1.393-4.975,5.373-4.975h9.552c3.781,0,5.174,1.393,5.174,4.975ZM189.448-126.564c-18.109,0-25.273,8.358-25.273,21.89v82.585C164.175-8.358,171.339,0,189.448,0h26.666c18.109,0,25.074-8.358,25.074-22.089v-82.585c0-13.532-6.965-21.89-25.074-21.89Zm103.878,20.895h15.323c3.781,0,5.174,1.393,5.174,4.975v28.457c0,3.582-1.393,4.776-5.174,4.776H293.326ZM318.2,0h30.447L326.36-48.158c11.343-2.587,15.92-10.149,15.92-21.094v-35.422c0-13.532-6.965-21.89-25.074-21.89H265.068V0h28.258V-47.362H298.3Zm46.964,0h28.258V-126.564H365.165Zm83.978-126.564H418.5L394.02-64.078,418.5,0h30.646L423.671-64.078Zm18.308,0,4.975,82.386h22.686l4.776-82.386ZM469.242,0H498.1V-29.452H469.242Z" transform="translate(-1.99 126.564)"/>
</svg>
